<svg id="visual" viewBox="0 0 900 300" width="900" height="300" xmlns="http://www.w3.org/2000/svg" xmlns:xlink="http://www.w3.org/1999/xlink" version="1.1"><path d="M0 169L129 168L257 156L386 194L514 136L643 213L771 195L900 186L900 0L771 0L643 0L514 0L386 0L257 0L129 0L0 0Z" fill="#a9f50a"></path><path d="M0 136L129 162L257 133L386 143L514 112L643 122L771 156L900 155L900 0L771 0L643 0L514 0L386 0L257 0L129 0L0 0Z" fill="#e99d00"></path><path d="M0 108L129 101L257 114L386 81L514 128L643 139L771 91L900 145L900 0L771 0L643 0L514 0L386 0L257 0L129 0L0 0Z" fill="#d0534c"></path><path d="M0 102L129 50L257 92L386 88L514 105L643 57L771 51L900 51L900 0L771 0L643 0L514 0L386 0L257 0L129 0L0 0Z" fill="#7d365d"></path><path d="M0 60L129 31L257 64L386 59L514 42L643 23L771 37L900 22L900 0L771 0L643 0L514 0L386 0L257 0L129 0L0 0Z" fill="#282339"></path></svg>