<svg id="visual" viewBox="0 0 900 600" width="900" height="600" xmlns="http://www.w3.org/2000/svg" xmlns:xlink="http://www.w3.org/1999/xlink" version="1.1"><path d="M264 600L149 400L272 200L331 0L900 0L900 200L900 400L900 600Z" fill="#2f0c28"></path><path d="M181 600L326 400L305 200L280 0L900 0L900 200L900 400L900 600Z" fill="#4e0e2d"></path><path d="M326 600L293 400L446 200L268 0L900 0L900 200L900 400L900 600Z" fill="#6b142a"></path><path d="M381 600L464 400L414 200L432 0L900 0L900 200L900 400L900 600Z" fill="#82261e"></path><path d="M499 600L426 400L509 200L552 0L900 0L900 200L900 400L900 600Z" fill="#8c3412"></path><path d="M506 600L600 400L542 200L617 0L900 0L900 200L900 400L900 600Z" fill="#8c3412"></path><path d="M657 600L652 400L662 200L682 0L900 0L900 200L900 400L900 600Z" fill="#82261e"></path><path d="M727 600L672 400L627 200L718 0L900 0L900 200L900 400L900 600Z" fill="#6b142a"></path><path d="M751 600L735 400L750 200L715 0L900 0L900 200L900 400L900 600Z" fill="#4e0e2d"></path><path d="M813 600L829 400L866 200L775 0L900 0L900 200L900 400L900 600Z" fill="#2f0c28"></path></svg>