<svg id="visual" viewBox="0 0 900 600" width="900" height="600" xmlns="http://www.w3.org/2000/svg" xmlns:xlink="http://www.w3.org/1999/xlink" version="1.1"><path d="M322 600L448 500L296 400L83 300L74 200L425 100L69 0L900 0L900 100L900 200L900 300L900 400L900 500L900 600Z" fill="#120e1f"></path><path d="M551 600L474 500L559 400L190 300L199 200L500 100L377 0L900 0L900 100L900 200L900 300L900 400L900 500L900 600Z" fill="#1e1b45"></path><path d="M401 600L538 500L548 400L324 300L296 200L486 100L470 0L900 0L900 100L900 200L900 300L900 400L900 500L900 600Z" fill="#29276f"></path><path d="M460 600L308 500L536 400L490 300L653 200L481 100L309 0L900 0L900 100L900 200L900 300L900 400L900 500L900 600Z" fill="#37339b"></path><path d="M384 600L651 500L369 400L572 300L398 200L444 100L542 0L900 0L900 100L900 200L900 300L900 400L900 500L900 600Z" fill="#4139b6"></path><path d="M679 600L599 500L600 400L679 300L679 200L549 100L586 0L900 0L900 100L900 200L900 300L900 400L900 500L900 600Z" fill="#4139b6"></path><path d="M744 600L712 500L688 400L688 300L752 200L583 100L659 0L900 0L900 100L900 200L900 300L900 400L900 500L900 600Z" fill="#37339b"></path><path d="M785 600L787 500L774 400L772 300L792 200L747 100L607 0L900 0L900 100L900 200L900 300L900 400L900 500L900 600Z" fill="#29276f"></path><path d="M769 600L789 500L749 400L720 300L730 200L723 100L751 0L900 0L900 100L900 200L900 300L900 400L900 500L900 600Z" fill="#1e1b45"></path><path d="M768 600L843 500L797 400L865 300L827 200L792 100L882 0L900 0L900 100L900 200L900 300L900 400L900 500L900 600Z" fill="#120e1f"></path>

</svg>