<svg id="visual" viewBox="0 0 960 540" width="960" height="540" xmlns="http://www.w3.org/2000/svg" xmlns:xlink="http://www.w3.org/1999/xlink" version="1.1"><path d="M191 540L203 540L203 450L314 450L314 360L296 360L296 270L401 270L401 180L217 180L217 90L407 90L407 0L960 0L960 90L960 90L960 180L960 180L960 270L960 270L960 360L960 360L960 450L960 450L960 540L960 540Z" fill="#c83f75"></path><path d="M545 540L486 540L486 450L393 450L393 360L617 360L617 270L592 270L592 180L325 180L325 90L492 90L492 0L960 0L960 90L960 90L960 180L960 180L960 270L960 270L960 360L960 360L960 450L960 450L960 540L960 540Z" fill="#ae1c7c"></path><path d="M777 540L716 540L716 450L528 450L528 360L616 360L616 270L490 270L490 180L724 180L724 90L636 90L636 0L960 0L960 90L960 90L960 180L960 180L960 270L960 270L960 360L960 360L960 450L960 450L960 540L960 540Z" fill="#8b0086"></path><path d="M876 540L676 540L676 450L848 450L848 360L741 360L741 270L830 270L830 180L884 180L884 90L728 90L728 0L960 0L960 90L960 90L960 180L960 180L960 270L960 270L960 360L960 360L960 450L960 450L960 540L960 540Z" fill="#560090"></path></svg>