<svg id="visual" viewBox="0 0 900 600" width="900" height="600" xmlns="http://www.w3.org/2000/svg" xmlns:xlink="http://www.w3.org/1999/xlink" version="1.1"><path d="M426 0L383 0L383 86L373 86L373 171L493 171L493 257L454 257L454 343L412 343L412 429L390 429L390 514L487 514L487 600L0 600L0 514L0 514L0 429L0 429L0 343L0 343L0 257L0 257L0 171L0 171L0 86L0 86L0 0L0 0Z" fill="#00ffa2"></path><path d="M247 0L248 0L248 86L248 86L248 171L382 171L382 257L306 257L306 343L252 343L252 429L288 429L288 514L361 514L361 600L0 600L0 514L0 514L0 429L0 429L0 343L0 343L0 257L0 257L0 171L0 171L0 86L0 86L0 0L0 0Z" fill="#00b6e6"></path><path d="M171 0L245 0L245 86L238 86L238 171L228 171L228 257L180 257L180 343L284 343L284 429L284 429L284 514L227 514L227 600L0 600L0 514L0 514L0 429L0 429L0 343L0 343L0 257L0 257L0 171L0 171L0 86L0 86L0 0L0 0Z" fill="#275fa5"></path><path d="M110 0L139 0L139 86L170 86L170 171L134 171L134 257L135 257L135 343L175 343L175 429L91 429L91 514L110 514L110 600L0 600L0 514L0 514L0 429L0 429L0 343L0 343L0 257L0 257L0 171L0 171L0 86L0 86L0 0L0 0Z" fill="#300949"></path></svg>