<svg width="960" height="540" xmlns="http://www.w3.org/2000/svg" version="1.1">

 <g>
  <title>Layer 1</title>
  <path id="svg_1" fill="#270f3f" d="m181,540l12,0l0,-90l111,0l0,-90l-18,0l0,-90l105,0l0,-90l-184,0l0,-90l190,0l0,-90l553,0l0,90l0,0l0,90l0,0l0,90l0,0l0,90l0,0l0,90l0,0l0,90l0,0l-769,0z"/>
  <path id="svg_2" fill="#2e1e4f" d="m548,540l-59,0l0,-90l-93,0l0,-90l224,0l0,-90l-25,0l0,-90l-267,0l0,-90l167,0l0,-90l468,0l0,90l0,0l0,90l0,0l0,90l0,0l0,90l0,0l0,90l0,0l0,90l0,0l-415,0z"/>
  <path id="svg_3" fill="#278e6f" d="m777,539l-61,0l0,-90l-188,0l0,-90l88,0l0,-90l-126,0l0,-90l234,0l0,-90l-88,0l0,-90l324,0l0,90l0,0l0,90l0,0l0,90l0,0l0,90l0,0l0,90l0,0l0,90l0,0l-183,0z"/>
  <path id="svg_4" fill="#251233" d="m877,540l-200,0l0,-90l172,0l0,-90l-107,0l0,-90l89,0l0,-90l54,0l0,-90l-156,0l0,-90l232,0l0,90l0,0l0,90l0,0l0,90l0,0l0,90l0,0l0,90l0,0l0,90l0,0l-84,0z"/>
 </g>
</svg>