<svg width="900" height="600" xmlns="http://www.w3.org/2000/svg" version="1.1">

 <g>
  <title>Layer 1</title>
  <path stroke="null" id="svg_1" fill="#9A8AAB" d="m252.99067,600l-116.99068,-200l125.12916,-200l60.02131,-200l578.84954,0l0,200l0,200l0,200l-647.00933,0z"/>
  <path id="svg_2" fill="#332D40" d="m182,602l145,-200l-21,-200l-25,-200l620,0l0,200l0,200l0,200l-719,0z"/>
  <path id="svg_3" fill="#645A73" d="m326,600l-33,-200l153,-200l-178,-200l632,0l0,200l0,200l0,200l-574,0z"/>
  <path id="svg_4" fill="#9A8AAB" d="m381,600l83,-200l-50,-200l18,-200l468,0l0,200l0,200l0,200l-519,0z"/>
  <path id="svg_5" fill="#332D40" d="m499,600l-73,-200l83,-200l43,-200l348,0l0,200l0,200l0,200l-401,0z"/>
  <path id="svg_6" fill="#645A73" d="m506,600l94,-200l-58,-200l75,-200l283,0l0,200l0,200l0,200l-394,0z"/>
  <path stroke="null" id="svg_8" fill="#570d68" d="m699.75092,600l-63.663,-200l-52.08791,-200l105.33333,-200l210.66666,0l0,200l0,200l0,200l-200.24908,0z"/>
  <path id="svg_9" fill="#60127a" d="m751,600l-16,-200l15,-200l-35,-200l185,0l0,200l0,200l0,200l-149,0z"/>
  <path stroke="null" id="svg_10" fill="#430759" d="m783.072,600l21.504,-200l49.728,-200l-122.304,-200l168,0l0,200l0,200l0,200l-116.928,0z"/>
 </g>
</svg>